<svg xmlns="http://www.w3.org/2000/svg" xmlns:xlink="http://www.w3.org/1999/xlink" width="4370" zoomAndPan="magnify" viewBox="0 0 3277.5 2186.249901" height="2915" preserveAspectRatio="xMidYMid meet" version="1.0"><defs><clipPath id="ac54028e40"><path d="M 0.3125 0 L 3276.6875 0 L 3276.6875 2185.5 L 0.3125 2185.5 Z M 0.3125 0 " clip-rule="nonzero"/></clipPath><clipPath id="2fcc55405c"><path d="M 1201.398438 655.648438 L 2075.601562 655.648438 L 2075.601562 1529.851562 L 1201.398438 1529.851562 Z M 1201.398438 655.648438 " clip-rule="nonzero"/></clipPath></defs><g clip-path="url(#ac54028e40)"><path fill="#000000" d="M 3326.871094 -637.808594 L 34.589844 -637.808594 C -35.308594 -637.808594 -92.035156 -581.082031 -92.035156 -511.183594 L -92.035156 2781.097656 C -92.035156 2851.25 -35.308594 2907.722656 34.589844 2907.722656 L 3326.871094 2907.722656 C 3396.769531 2907.722656 3453.496094 2850.996094 3453.496094 2781.097656 L 3453.496094 -511.183594 C 3453.496094 -581.082031 3396.769531 -637.808594 3326.871094 -637.808594 Z M 3326.871094 -637.808594 " fill-opacity="1" fill-rule="nonzero"/></g><g clip-path="url(#2fcc55405c)"><path fill="#000000" d="M 2044.378906 655.648438 L 1232.621094 655.648438 C 1215.386719 655.648438 1201.398438 669.636719 1201.398438 686.871094 L 1201.398438 1498.628906 C 1201.398438 1515.925781 1215.386719 1529.851562 1232.621094 1529.851562 L 2044.378906 1529.851562 C 2061.613281 1529.851562 2075.601562 1515.863281 2075.601562 1498.628906 L 2075.601562 686.871094 C 2075.601562 669.636719 2061.613281 655.648438 2044.378906 655.648438 Z M 2044.378906 655.648438 " fill-opacity="1" fill-rule="nonzero"/></g></svg>