<svg id="visual" viewBox="0 0 900 600" width="900" height="600" xmlns="http://www.w3.org/2000/svg" xmlns:xlink="http://www.w3.org/1999/xlink" version="1.1"><rect x="0" y="0" width="900" height="600" fill="#ffffff"></rect><path d="M0 241L60 241L60 261L120 261L120 300L180 300L180 238L240 238L240 229L300 229L300 203L360 203L360 285L420 285L420 277L480 277L480 223L540 223L540 298L600 298L600 255L660 255L660 236L720 236L720 282L780 282L780 280L840 280L840 292L900 292L900 214L900 601L900 601L840 601L840 601L780 601L780 601L720 601L720 601L660 601L660 601L600 601L600 601L540 601L540 601L480 601L480 601L420 601L420 601L360 601L360 601L300 601L300 601L240 601L240 601L180 601L180 601L120 601L120 601L60 601L60 601L0 601Z" fill="#3a8f00"></path><path d="M0 267L60 267L60 274L120 274L120 250L180 250L180 316L240 316L240 327L300 327L300 267L360 267L360 263L420 263L420 267L480 267L480 295L540 295L540 301L600 301L600 328L660 328L660 293L720 293L720 325L780 325L780 269L840 269L840 262L900 262L900 305L900 601L900 601L840 601L840 601L780 601L780 601L720 601L720 601L660 601L660 601L600 601L600 601L540 601L540 601L480 601L480 601L420 601L420 601L360 601L360 601L300 601L300 601L240 601L240 601L180 601L180 601L120 601L120 601L60 601L60 601L0 601Z" fill="#3b9b03"></path><path d="M0 334L60 334L60 361L120 361L120 352L180 352L180 361L240 361L240 317L300 317L300 300L360 300L360 299L420 299L420 340L480 340L480 275L540 275L540 329L600 329L600 309L660 309L660 325L720 325L720 317L780 317L780 331L840 331L840 325L900 325L900 294L900 601L900 601L840 601L840 601L780 601L780 601L720 601L720 601L660 601L660 601L600 601L600 601L540 601L540 601L480 601L480 601L420 601L420 601L360 601L360 601L300 601L300 601L240 601L240 601L180 601L180 601L120 601L120 601L60 601L60 601L0 601Z" fill="#3ca707"></path><path d="M0 362L60 362L60 358L120 358L120 367L180 367L180 316L240 316L240 337L300 337L300 380L360 380L360 313L420 313L420 383L480 383L480 361L540 361L540 376L600 376L600 332L660 332L660 345L720 345L720 322L780 322L780 373L840 373L840 388L900 388L900 336L900 601L900 601L840 601L840 601L780 601L780 601L720 601L720 601L660 601L660 601L600 601L600 601L540 601L540 601L480 601L480 601L420 601L420 601L360 601L360 601L300 601L300 601L240 601L240 601L180 601L180 601L120 601L120 601L60 601L60 601L0 601Z" fill="#3bb30d"></path><path d="M0 405L60 405L60 379L120 379L120 387L180 387L180 395L240 395L240 408L300 408L300 352L360 352L360 426L420 426L420 351L480 351L480 357L540 357L540 374L600 374L600 381L660 381L660 376L720 376L720 426L780 426L780 359L840 359L840 400L900 400L900 350L900 601L900 601L840 601L840 601L780 601L780 601L720 601L720 601L660 601L660 601L600 601L600 601L540 601L540 601L480 601L480 601L420 601L420 601L360 601L360 601L300 601L300 601L240 601L240 601L180 601L180 601L120 601L120 601L60 601L60 601L0 601Z" fill="#3abf13"></path><path d="M0 392L60 392L60 413L120 413L120 410L180 410L180 448L240 448L240 401L300 401L300 447L360 447L360 436L420 436L420 415L480 415L480 461L540 461L540 444L600 444L600 438L660 438L660 447L720 447L720 388L780 388L780 455L840 455L840 407L900 407L900 414L900 601L900 601L840 601L840 601L780 601L780 601L720 601L720 601L660 601L660 601L600 601L600 601L540 601L540 601L480 601L480 601L420 601L420 601L360 601L360 601L300 601L300 601L240 601L240 601L180 601L180 601L120 601L120 601L60 601L60 601L0 601Z" fill="#37cb19"></path><path d="M0 428L60 428L60 428L120 428L120 457L180 457L180 460L240 460L240 444L300 444L300 491L360 491L360 470L420 470L420 476L480 476L480 427L540 427L540 467L600 467L600 443L660 443L660 435L720 435L720 468L780 468L780 456L840 456L840 478L900 478L900 466L900 601L900 601L840 601L840 601L780 601L780 601L720 601L720 601L660 601L660 601L600 601L600 601L540 601L540 601L480 601L480 601L420 601L420 601L360 601L360 601L300 601L300 601L240 601L240 601L180 601L180 601L120 601L120 601L60 601L60 601L0 601Z" fill="#33d81f"></path><path d="M0 514L60 514L60 517L120 517L120 497L180 497L180 510L240 510L240 515L300 515L300 474L360 474L360 478L420 478L420 506L480 506L480 478L540 478L540 483L600 483L600 507L660 507L660 462L720 462L720 510L780 510L780 484L840 484L840 516L900 516L900 524L900 601L900 601L840 601L840 601L780 601L780 601L720 601L720 601L660 601L660 601L600 601L600 601L540 601L540 601L480 601L480 601L420 601L420 601L360 601L360 601L300 601L300 601L240 601L240 601L180 601L180 601L120 601L120 601L60 601L60 601L0 601Z" fill="#2be525"></path><path d="M0 549L60 549L60 553L120 553L120 549L180 549L180 554L240 554L240 515L300 515L300 534L360 534L360 551L420 551L420 526L480 526L480 544L540 544L540 502L600 502L600 548L660 548L660 528L720 528L720 498L780 498L780 524L840 524L840 549L900 549L900 543L900 601L900 601L840 601L840 601L780 601L780 601L720 601L720 601L660 601L660 601L600 601L600 601L540 601L540 601L480 601L480 601L420 601L420 601L360 601L360 601L300 601L300 601L240 601L240 601L180 601L180 601L120 601L120 601L60 601L60 601L0 601Z" fill="#1ff22c"></path><path d="M0 565L60 565L60 585L120 585L120 567L180 567L180 558L240 558L240 570L300 570L300 579L360 579L360 563L420 563L420 555L480 555L480 563L540 563L540 556L600 556L600 548L660 548L660 538L720 538L720 574L780 574L780 542L840 542L840 543L900 543L900 537L900 601L900 601L840 601L840 601L780 601L780 601L720 601L720 601L660 601L660 601L600 601L600 601L540 601L540 601L480 601L480 601L420 601L420 601L360 601L360 601L300 601L300 601L240 601L240 601L180 601L180 601L120 601L120 601L60 601L60 601L0 601Z" fill="#00ff33"></path></svg>